<svg xmlns="http://www.w3.org/2000/svg" viewBox="0 0 298 298"><defs><style>.cls-1{fill:#fff;}</style></defs><g id="Слой_2" data-name="Слой 2"><g id="Слой_1-2" data-name="Слой 1"><circle class="cls-1" cx="149" cy="149" r="144"/><path d="M149,10a139,139,0,0,1,98.29,237.29A139,139,0,0,1,50.71,50.71,138.12,138.12,0,0,1,149,10m0-10A149,149,0,1,0,298,149,149,149,0,0,0,149,0Z"/><path d="M66.48,110.18h9.75c6.67,0,11.29,2.27,11.29,8a7.2,7.2,0,0,1-4.8,7.13v.2c3.92.77,6.68,3.36,6.68,7.85,0,6.45-5.11,9.6-12.43,9.6H66.48Zm9,14c5.58,0,7.89-2.06,7.89-5.39,0-3.83-2.62-5.26-7.7-5.26h-5v10.65Zm.85,15.54c5.62,0,8.92-2,8.92-6.45,0-4-3.18-5.89-8.92-5.89H70.66v12.34Z"/><path d="M95.5,118.69h4.11v9H103c5.78,0,9.67,2.29,9.67,7.61S108.81,143,103,143H95.5Zm7.1,21c4.09,0,6.07-1.4,6.07-4.48s-2-4.39-6.07-4.39h-3v8.87Zm14.3-21H121V143H116.9Z"/><path d="M127.76,128.27c0-16.45,6-19,15.23-20.4a14.53,14.53,0,0,0,5-1.37l.84,3.73a12.43,12.43,0,0,1-5,1.56c-9,1.35-12.12,2-12.12,17.26,0,7,2.53,11.13,7.46,11.13,3.76,0,6.47-3.72,6.47-9.22,0-5-2.34-8.19-6.55-8.19-2.36,0-4.93,1.08-7.44,4.48l-.15-3.09a10.72,10.72,0,0,1,8.63-4.57c5.76,0,9.75,4.27,9.75,11.37,0,7.73-4.77,12.64-10.67,12.64C131.94,143.6,127.76,138.07,127.76,128.27Z"/><path d="M154.59,130.88c0-8.11,5.31-12.79,11.27-12.79s11.26,4.68,11.26,12.79-5.3,12.72-11.26,12.72S154.59,138.93,154.59,130.88Zm18.28,0c0-5.57-2.83-9.36-7-9.36s-7,3.79-7,9.36,2.84,9.3,7,9.3S172.87,136.45,172.87,130.88Z"/><path d="M183.5,118.69h3.4l.35,2.81h.13c2.2-1.83,4.93-3.41,7.75-3.41,6.28,0,9.64,4.88,9.64,12.39,0,8.28-5,13.12-10.53,13.12a11,11,0,0,1-6.74-2.82l.11,4.25v8.22H183.5Zm17,11.83c0-5.37-1.83-9-6.41-9-2.06,0-4.13,1.14-6.5,3.32v12.74a9.51,9.51,0,0,0,5.92,2.53C197.55,140.14,200.52,136.52,200.52,130.52Z"/><path d="M211.25,118.69h4.11v9h3.41c5.79,0,9.68,2.29,9.68,7.61s-3.89,7.74-9.68,7.74h-7.52Zm7.1,21c4.09,0,6.07-1.4,6.07-4.48s-2-4.39-6.07-4.39h-3v8.87Zm14.3-21h4.11V143h-4.11Z"/><path d="M86.48,170.18h4.18v13.75h9.57v3.64H90.66V203H86.48ZM98,186.47c0-10.51,5.31-16.89,13.37-16.89s13.5,6.4,13.5,16.89-5.45,17.13-13.5,17.13S98,197,98,186.47Zm22.55,0c0-8.17-3.51-13.22-9.18-13.22s-9.19,5.05-9.19,13.22,3.52,13.46,9.19,13.46S120.5,194.65,120.5,186.47Z"/><path d="M129.73,186.47c0-7.94,5.59-12.22,15-12.22h2c9.38,0,15,4.28,15,12.22s-5.59,12.42-15,12.42h-2C135.32,198.89,129.73,194.41,129.73,186.47ZM147,195.69c6.88,0,10.69-3.42,10.69-9.22s-3.81-9-10.69-9h-2.51c-6.88,0-10.7,3.22-10.7,9s3.82,9.22,10.7,9.22Zm-3.09-26.11h3.67v34h-3.67Z"/><path d="M168.48,170.18h5l6.29,17.54c.79,2.24,1.55,4.56,2.34,6.84h.2c.79-2.28,1.48-4.6,2.26-6.84l6.22-17.54h5V203H192V184.93c0-2.86.32-6.8.53-9.7h-.2l-2.6,7.48-6.19,17h-2.76l-6.22-17-2.6-7.48h-.2c.22,2.9.54,6.84.54,9.7V203h-3.79Z"/><path d="M200.34,203.16l.87-3.84a4,4,0,0,0,1.4.26c1.73,0,3-1,4.58-8.79,1.36-6.84,2.49-13.38,3.78-20.61h16.4V203h-4.18V173.72h-9c-1.08,6-2,11.71-3.11,17.53-1.88,10-4,12.35-8,12.35A7.6,7.6,0,0,1,200.34,203.16Z"/></g></g></svg>